<svg xmlns="http://www.w3.org/2000/svg" xmlns:xlink="http://www.w3.org/1999/xlink" width="98.957" height="48.284" viewBox="0 0 98.957 48.284">
  <defs>
    <clipPath id="clip-path">
      <rect id="Rectangle_3" data-name="Rectangle 3" width="98.957" height="48.284" fill="#fff"/>
    </clipPath>
  </defs>
  <g id="Group_6" data-name="Group 6" transform="translate(0 0)">
    <g id="Group_12555" data-name="Group 12555" transform="translate(0 0)" clip-path="url(#clip-path)">
      <path id="Path_46" data-name="Path 46" d="M.038,0H14.806l5.7,22.1L26.18,0H45.5a12.915,12.915,0,0,0-5.574,2.108A11.468,11.468,0,0,0,35.67,8.145a18.47,18.47,0,0,0-.516,2.712l9.646.012a7.249,7.249,0,0,1,1.487-3.938,3.944,3.944,0,0,1,2.849-1.055c.137,0,.269,0,.4.014V13.48a5.254,5.254,0,0,1-1.308.161c-.607,0-1.187.046-1.8.066l.006,6.886a13.364,13.364,0,0,1,3.1-.583V30.568a4.331,4.331,0,0,1-2.919-1.149A7.006,7.006,0,0,1,44.8,25.461l-10.137.024c.026.084.287,1.268.313,1.352a15.228,15.228,0,0,0,2.7,5.282,11.573,11.573,0,0,0,4.627,3.345,14.858,14.858,0,0,0,3.4.862H31.728V8.628l-7.113,27.7h-8.3L9.23,8.628v27.7H.038Z" transform="translate(0.038 0)" fill="#fff" fill-rule="evenodd"/>
      <path id="Path_47" data-name="Path 47" d="M28.622,0H47.794l5.7,22.1L59.17,0H73.886V36.327H64.718V8.628L57.6,36.327H49.309l-7.089-27.7v27.7H28.978a14.147,14.147,0,0,0,4.2-1.27,10.982,10.982,0,0,0,4.7-4.4,11.975,11.975,0,0,0,1.627-5.969,8.708,8.708,0,0,0-.989-4.27,7.728,7.728,0,0,0-2.757-2.889A11.42,11.42,0,0,0,32.6,16.341a10.762,10.762,0,0,0,3.82-3.291,7.328,7.328,0,0,0,1.262-4.183,8.178,8.178,0,0,0-3.114-6.544A11.833,11.833,0,0,0,28.622,0M24.674,30.568l.2.006A4.31,4.31,0,0,0,28.2,29.114a5.605,5.605,0,0,0,1.328-3.9,5.451,5.451,0,0,0-1.28-3.846,4.551,4.551,0,0,0-3.472-1.362h-.1Zm0-17.088V5.889a3.439,3.439,0,0,1,2.274.96,3.524,3.524,0,0,1,.97,2.606,3.927,3.927,0,0,1-1.3,2.94,4.35,4.35,0,0,1-1.947,1.085" transform="translate(24.902 0)" fill="#fff" fill-rule="evenodd"/>
      <path id="Path_48" data-name="Path 48" d="M2.745,26.2a1.483,1.483,0,0,0,1.318-.7,3.69,3.69,0,0,0,.458-2.025,4.608,4.608,0,0,0-.438-2.27,1.455,1.455,0,0,0-1.338-.741,1.482,1.482,0,0,0-1.334.725,4.029,4.029,0,0,0-.456,2.13,4.08,4.08,0,0,0,.456,2.144,1.473,1.473,0,0,0,1.334.733m2.729-2.907a4.514,4.514,0,0,1-.691,2.725,2.391,2.391,0,0,1-2.037.924,2.4,2.4,0,0,1-2.039-.932A4.385,4.385,0,0,1,0,23.32a4.354,4.354,0,0,1,.7-2.676,2.409,2.409,0,0,1,2.041-.92,2.4,2.4,0,0,1,2.031.91,4.307,4.307,0,0,1,.7,2.656m4.919,3.5H9.508v-.346l-.086-.022a1.918,1.918,0,0,1-.6.394,1.8,1.8,0,0,1-.689.121,1.443,1.443,0,0,1-.85-.251,1.552,1.552,0,0,1-.551-.717,2.031,2.031,0,0,1-.088-.438c-.018-.183-.028-.528-.028-1.041V21.742h.864v3.064a2.063,2.063,0,0,0,.207,1.1.781.781,0,0,0,.7.3,1.408,1.408,0,0,0,.542-.115,2.7,2.7,0,0,0,.593-.374V21.742h.874Zm1.431-5.049h.872v.2c0,.115,0,.221-.012.317s-.016.191-.028.279l.086.066a1.476,1.476,0,0,1,.6-.667,2.21,2.21,0,0,1,1.015-.195h.058v1.015h-.434a1.53,1.53,0,0,0-1.027.251,1.376,1.376,0,0,0-.263.976v2.807h-.872Zm6.056-1.881h4.161v.723H18.8v2.287h2.95v.759H18.8V26.02h3.418v.772H17.878Zm6,4.434L22.64,21.742h1.091l.79,2.325h.129l.882-2.325h.985l-1.2,2.554,1.234,2.5h-1.1l-.8-2.2h-.129l-.852,2.2h-1Zm4.541-1.433V25.68a2.082,2.082,0,0,0,.54.38,1.2,1.2,0,0,0,.528.129.976.976,0,0,0,.89-.482,2.809,2.809,0,0,0,.3-1.451,2.751,2.751,0,0,0-.3-1.429.972.972,0,0,0-.888-.486,1.227,1.227,0,0,0-.532.129,2.223,2.223,0,0,0-.536.394m-.862-1.121h.862v.382l.106.044a2.014,2.014,0,0,1,.571-.444,1.381,1.381,0,0,1,.611-.139,1.575,1.575,0,0,1,1.354.725,3.36,3.36,0,0,1,.508,1.963,3.371,3.371,0,0,1-.5,1.953,1.552,1.552,0,0,1-1.338.721,1.494,1.494,0,0,1-.627-.139,2.079,2.079,0,0,1-.577-.434l-.106.02v1.983h-.862Zm8.951,2.618V24.5H33.373a1.923,1.923,0,0,0,.356,1.264,1.316,1.316,0,0,0,1.063.422,1.837,1.837,0,0,0,.7-.131,2.47,2.47,0,0,0,.665-.438h.356v.86a4.959,4.959,0,0,1-.918.358,3.055,3.055,0,0,1-.808.111,2.164,2.164,0,0,1-1.72-.671,2.88,2.88,0,0,1-.589-1.957,3.126,3.126,0,0,1,.575-2,1.9,1.9,0,0,1,1.575-.723,1.77,1.77,0,0,1,1.37.553,2.109,2.109,0,0,1,.514,1.493Zm-.844-.585a2.2,2.2,0,0,0-.253-1.212.922.922,0,0,0-.816-.366,1.03,1.03,0,0,0-.894.426,2.3,2.3,0,0,0-.328,1.274l2.291.006Zm2-2.033h.872v.2c0,.115,0,.221-.01.317s-.018.191-.03.279l.086.066a1.466,1.466,0,0,1,.6-.667,2.21,2.21,0,0,1,1.015-.195h.058v1.015h-.436a1.531,1.531,0,0,0-1.025.251,1.376,1.376,0,0,0-.263.976v2.807h-.872ZM42.9,26.792a1.9,1.9,0,0,1-1.165-.219,1.859,1.859,0,0,1-.221-1.151v-3.08h-.884v-.6h.884V20.388h.864v1.354h1.139v.6H42.379v3.12c0,.348.042.557.131.627a1.144,1.144,0,0,0,.629.108h.38v.595Zm2.435,0h-.874V21.742h.874Zm-.944-7.079h1.1v.842h-1.1Zm2.13,5.905h.448a1.263,1.263,0,0,0,.49.49,1.394,1.394,0,0,0,.7.175,1.068,1.068,0,0,0,.709-.225.737.737,0,0,0,.269-.587c0-.378-.382-.687-1.141-.928l-.082-.024a2.448,2.448,0,0,1-1.043-.579,1.211,1.211,0,0,1-.321-.868,1.3,1.3,0,0,1,.49-1.057,2.005,2.005,0,0,1,1.3-.4,3.418,3.418,0,0,1,.7.076,5.435,5.435,0,0,1,.755.223v1.009h-.4a1.441,1.441,0,0,0-.484-.544,1.182,1.182,0,0,0-.659-.181.871.871,0,0,0-.591.213.675.675,0,0,0-.241.524.656.656,0,0,0,.215.514,2.937,2.937,0,0,0,1.009.408,2.141,2.141,0,0,1,1.017.569,1.294,1.294,0,0,1,.338.908,1.5,1.5,0,0,1-.492,1.161,1.847,1.847,0,0,1-1.284.442,4.3,4.3,0,0,1-.96-.1,2.451,2.451,0,0,1-.745-.3Zm8.3-1.258V24.5H51.691a1.923,1.923,0,0,0,.356,1.264,1.309,1.309,0,0,0,1.061.422,1.83,1.83,0,0,0,.7-.131,2.47,2.47,0,0,0,.665-.438h.356v.86a4.891,4.891,0,0,1-.916.358,3.058,3.058,0,0,1-.81.111,2.167,2.167,0,0,1-1.72-.671,2.88,2.88,0,0,1-.589-1.957,3.114,3.114,0,0,1,.579-2,1.9,1.9,0,0,1,1.571-.723,1.778,1.778,0,0,1,1.372.553,2.117,2.117,0,0,1,.512,1.493Zm-.842-.585a2.182,2.182,0,0,0-.255-1.212.922.922,0,0,0-.816-.366,1.03,1.03,0,0,0-.894.426,2.3,2.3,0,0,0-.325,1.274l2.291.006Zm2.023,1.863h1.107V26.79H56.005Zm6.829-1.374-2.09-4.4h1.091l1,2.6c.012.028.026.066.046.121.151.4.273.751.358,1.063h.151c.046-.253.1-.482.149-.691a5.448,5.448,0,0,1,.171-.532l1-2.556H65.8l-2.09,4.4v2.528h-.874Zm5.831-1.943a1.055,1.055,0,0,0-.928.488,2.439,2.439,0,0,0-.33,1.384,2.808,2.808,0,0,0,.328,1.5,1.12,1.12,0,0,0,1.885,0,2.683,2.683,0,0,0,.334-1.461,2.542,2.542,0,0,0-.328-1.423,1.081,1.081,0,0,0-.96-.488m-2.152,1.863A2.859,2.859,0,0,1,67.1,22.3a1.916,1.916,0,0,1,1.555-.705,1.987,1.987,0,0,1,1.619.693,2.985,2.985,0,0,1,.573,1.953,3.093,3.093,0,0,1-.569,1.985,2.133,2.133,0,0,1-3.193-.014,3.217,3.217,0,0,1-.571-2.029m9.25,2.608H74.88v-.346l-.086-.022a1.9,1.9,0,0,1-.6.394,1.8,1.8,0,0,1-.687.121,1.441,1.441,0,0,1-.852-.251,1.548,1.548,0,0,1-.549-.717,1.8,1.8,0,0,1-.09-.438c-.018-.183-.026-.528-.026-1.041V21.742h.862v3.064a2.063,2.063,0,0,0,.207,1.1.784.784,0,0,0,.7.3,1.383,1.383,0,0,0,.54-.115,2.666,2.666,0,0,0,.595-.374V21.742h.874Zm1.431-5.049h.872v.2c0,.115,0,.221-.012.317s-.014.191-.028.279l.086.066a1.469,1.469,0,0,1,.607-.667,2.2,2.2,0,0,1,1.013-.195h.06v1.015h-.436a1.533,1.533,0,0,0-1.027.251,1.376,1.376,0,0,0-.263.976v2.807h-.872Zm6.671,2.293v.981a1.385,1.385,0,0,0,.215.842.718.718,0,0,0,.619.289.755.755,0,0,0,.707-.35,3.252,3.252,0,0,0,.2-1.437v-4.5h.97v4.8a5.255,5.255,0,0,1-.054.874,1.983,1.983,0,0,1-.175.54,1.42,1.42,0,0,1-.617.637,2.038,2.038,0,0,1-.987.225,1.807,1.807,0,0,1-1.408-.5,2.234,2.234,0,0,1-.458-1.549v-.854Zm6.008-1.714a1.059,1.059,0,0,0-.928.488,2.455,2.455,0,0,0-.33,1.384,2.806,2.806,0,0,0,.33,1.5,1.119,1.119,0,0,0,1.883,0,2.664,2.664,0,0,0,.336-1.461,2.524,2.524,0,0,0-.33-1.423,1.077,1.077,0,0,0-.96-.488m-2.15,1.863a2.858,2.858,0,0,1,.583-1.883,1.921,1.921,0,0,1,1.559-.705,1.991,1.991,0,0,1,1.617.693,3,3,0,0,1,.573,1.953,3.093,3.093,0,0,1-.571,1.985,2.131,2.131,0,0,1-3.191-.014,3.217,3.217,0,0,1-.571-2.029m5.246,3.47h.366a1.183,1.183,0,0,0,.7-.163,1.143,1.143,0,0,0,.35-.631l-1.557-5.118h.9l.725,2.761a6.448,6.448,0,0,1,.169.755,5.433,5.433,0,0,1,.06.679h.237c.04-.3.08-.581.125-.828s.086-.452.127-.607l.822-2.761h.874l-1.788,5.483a1.7,1.7,0,0,1-.583.944,2.368,2.368,0,0,1-1.2.219h-.325Zm4.882-2.015h1.105V26.79H97.851Z" transform="translate(0 19.895)" fill="#fff"/>
    </g>
  </g>
</svg>
